# xmcd
#
# Track frame offsets:
#	187
#	21042
#	36122
#	45225
#	57432
#	70670
#	83855
#	90315
#	98115
#	118137
#	131842
#	144502
#	165092
#	172192
#	178672
#	183440
#
# Disc length: 2647 seconds
#
# Revision: 1
# Processed by: cddbd v1.5.1PL0 Copyright (c) Steve Scherf et al.
# Submitted via: CDex 1.50Beta5
#
DISCID=ce0a5510
DTITLE=中村祐介 - 巨神ゴーグ 音楽篇Vol.2
DYEAR=1994
DGENRE=
TTITLE0=中村祐介/TWILIGHT
TTITLE1=ビクター・オーケストラ/悠字とドリス
TTITLE2=ビクター・オーケストラ/異星人のテーマ
TTITLE3=ビクター・オーケストラ/異星人との出あい
TTITLE4=ビクター・オーケストラ/やすらぎのテーマ
TTITLE5=ビクター・オーケストラ/悲しみのテーマ
TTITLE6=ビクター・オーケストラ/神々の怒り
TTITLE7=ビクター・オーケストラ/エンディング・テーマ
TTITLE8=中村祐介/CALL MY NAME
TTITLE9=ビクター・オーケストラ/好戦
TTITLE10=ビクター・オーケストラ/ゴーグの怒り
TTITLE11=ビクター・オーケストラ/戦闘のテーマ
TTITLE12=ビクター・オーケストラ/レイディのテーマ
TTITLE13=ビクター・オーケストラ/ミニコレクション コード篇
TTITLE14=ビクター・オーケストラ/ミニコレクション サブタイトル・アイキャッチ篇
TTITLE15=ビクター・オーケストラ/ミニコレクション ブリッジ篇
EXTD=
EXTT0=
EXTT1=
EXTT2=
EXTT3=
EXTT4=
EXTT5=
EXTT6=
EXTT7=
EXTT8=
EXTT9=
EXTT10=
EXTT11=
EXTT12=
EXTT13=
EXTT14=
EXTT15=
PLAYORDER=
